<svg xmlns="http://www.w3.org/2000/svg" xml:space="preserve" width="110" height="110" viewBox="0 0 29.104 29.104"><path d="M9.233 28.898c-.57-.296-8.62-8.347-8.917-8.916-.28-.537-.338-1.674-.116-2.272C.382 17.22 17.041.533 17.584.297c.23-.1.76-.182 1.177-.182.617 0 .868.07 1.337.375.906.587 8.527 8.314 8.765 8.885.25.602.26 1.666.02 2.219-.105.24-3.442 3.672-7.803 8.025-4.192 4.183-7.62 7.65-7.62 7.704s2.151.098 4.782.098c5.34 0 5.36.003 5.36.832 0 .892.28.859-7.227.853-5.86-.004-6.804-.032-7.142-.208m3.252-3.168 1.687-1.692-4.517-4.516-4.517-4.517-1.692 1.688c-1.416 1.413-1.69 1.75-1.69 2.077 0 .338.547.937 4.13 4.52 3.584 3.583 4.183 4.13 4.521 4.13.327 0 .664-.274 2.078-1.69" style="fill:#666;stroke-width:1.44873"/><path d="M38.094 102.892c-1.606-1.019-6.782-5.974-17.277-16.541C8.06 73.506 6.827 72.139 6.827 70.84c0-1.024 1.64-2.954 7.342-8.638l5.253-5.237L36.37 73.922l16.947 16.955-5.885 5.842c-5.202 5.165-7.19 6.853-8.065 6.853-.11 0-.682-.306-1.272-.68" style="fill:#fff;stroke:none;stroke-width:.774013" transform="scale(.26458)"/></svg>